<svg width="24px" height="24px" viewBox="0 0 24 24" fill="none" xmlns="http://www.w3.org/2000/svg">
<path d="M21.6907 4.8866C21.5876 3.54639 20.5567 2.41237 19.1134 2.30928C17.0515 2.10309 14.1649 2 12 2C9.83505 2 6.94845 2.10309 4.8866 2.30928C4.16495 2.30928 3.54639 2.61856 3.13402 3.13402C2.72165 3.64948 2.41237 4.16495 2.30928 4.8866C2.10309 6.94845 2 9.83505 2 12C2 14.1649 2.20619 17.0515 2.30928 19.1134C2.41237 20.4536 3.4433 21.5876 4.8866 21.6907C6.94845 21.8969 9.83505 22 12 22C14.1649 22 17.0515 21.7938 19.1134 21.6907C20.4536 21.5876 21.5876 20.5567 21.6907 19.1134C21.8969 17.0515 22 14.1649 22 12C22 9.83505 21.8969 6.94845 21.6907 4.8866ZM15.6082 10.4536L11.4845 14.5773C11.2783 14.6804 11.1753 14.7835 10.9691 14.7835C10.7629 14.7835 10.5567 14.6804 10.4536 14.5773L8.39175 12.5155C8.08247 12.2062 8.08247 11.6907 8.39175 11.3814C8.70103 11.0722 9.21649 11.0722 9.52577 11.3814L11.0722 12.9278L14.6804 9.31959C14.9897 9.01031 15.5052 9.01031 15.8144 9.31959C15.9175 9.73196 15.9175 10.1443 15.6082 10.4536Z" fill="#030D45"/>
</svg>
